HIERARCHY
ROOT Hips
{
  OFFSET 5.84602e-005 68.8428 3.50346
  CHANNELS 6 Xposition Yposition Zposition Zrotation Xrotation Yrotation
  JOINT Spine
  {
    OFFSET 0 8.597 -4.6522
    CHANNELS 3 Zrotation Xrotation Yrotation
    JOINT Spine1
    {
      OFFSET 0 7.8454 0.4098
      CHANNELS 3 Zrotation Xrotation Yrotation
      JOINT Spine2
      {
        OFFSET 0 9.7078 -2.1609
        CHANNELS 3 Zrotation Xrotation Yrotation
        JOINT Neck
        {
          OFFSET 0 21.8761 -0.4549
          CHANNELS 3 Zrotation Xrotation Yrotation
          JOINT Head
          {
            OFFSET 0 12.3537 3.3602
            CHANNELS 3 Zrotation Xrotation Yrotation
            End Site
            {
              OFFSET 0.0001 18.9506 0.5657
            }
          }
        }
        JOINT LeftShoulder
        {
          OFFSET 2.2086 21.1115 7.2329
          CHANNELS 3 Zrotation Xrotation Yrotation
          JOINT LeftArm
          {
            OFFSET 13.1193 3.0282 -4.8998
            CHANNELS 3 Zrotation Xrotation Yrotation
            JOINT LeftForeArm
            {
              OFFSET 27.4081 -0.0973053 -0.2375
              CHANNELS 3 Zrotation Xrotation Yrotation
              JOINT LeftHand
              {
                OFFSET 22.8641 0.0662994 -0.1369
                CHANNELS 3 Zrotation Xrotation Yrotation
                JOINT LeftHandIndex1
                {
                  OFFSET 8.8614 0.775009 2.4612
                  CHANNELS 3 Zrotation Xrotation Yrotation
                  JOINT LeftHandIndex2
                  {
                    OFFSET 3.3146 -0.808304 0.5841
                    CHANNELS 3 Zrotation Xrotation Yrotation
                    JOINT LeftHandIndex3
                    {
                      OFFSET 2.2628 -0.552002 0.3989
                      CHANNELS 3 Zrotation Xrotation Yrotation
                      End Site
                      {
                        OFFSET 1.6102 -0.4807 0.2612
                      }
                    }
                  }
                }
                JOINT LeftHandMiddle1
                {
                  OFFSET 8.9937 0.895004 0.2143
                  CHANNELS 3 Zrotation Xrotation Yrotation
                  JOINT LeftHandMiddle2
                  {
                    OFFSET 4.0984 0.0113983 -0.0242
                    CHANNELS 3 Zrotation Xrotation Yrotation
                    JOINT LeftHandMiddle3
                    {
                      OFFSET 2.2716 0.00689697 -0.0138001
                      CHANNELS 3 Zrotation Xrotation Yrotation
                      End Site
                      {
                        OFFSET 2.0404 -0.1441 0.0027
                      }
                    }
                  }
                }
                JOINT LeftHandRing1
                {
                  OFFSET 8.5234 0.597198 -2.0164
                  CHANNELS 3 Zrotation Xrotation Yrotation
                  JOINT LeftHandRing2
                  {
                    OFFSET 3.7188 -0.188293 -0.2328
                    CHANNELS 3 Zrotation Xrotation Yrotation
                    JOINT LeftHandRing3
                    {
                      OFFSET 2.1191 -0.106598 -0.1332
                      CHANNELS 3 Zrotation Xrotation Yrotation
                      End Site
                      {
                        OFFSET 1.8737 -0.2304 -0.0886
                      }
                    }
                  }
                }
                JOINT LeftHandPinky1
                {
                  OFFSET 7.9094 -0.601089 -3.4825
                  CHANNELS 3 Zrotation Xrotation Yrotation
                  JOINT LeftHandPinky2
                  {
                    OFFSET 2.2874 -0.477005 -0.6314
                    CHANNELS 3 Zrotation Xrotation Yrotation
                    JOINT LeftHandPinky3
                    {
                      OFFSET 1.6774 -0.349396 -0.4633
                      CHANNELS 3 Zrotation Xrotation Yrotation
                      End Site
                      {
                        OFFSET 1.4888 -0.4091 -0.3416
                      }
                    }
                  }
                }
                JOINT LeftHandThumb1
                {
                  OFFSET 1.833 -1.3875 1.3896
                  CHANNELS 3 Zrotation Xrotation Yrotation
                  JOINT LeftHandThumb2
                  {
                    OFFSET 3.4129 -1.121 2.5732
                    CHANNELS 3 Zrotation Xrotation Yrotation
                    JOINT LeftHandThumb3
                    {
                      OFFSET 2.2474 -0.804199 1.6192
                      CHANNELS 3 Zrotation Xrotation Yrotation
                      End Site
                      {
                        OFFSET 1.6527 -0.5689 1.1317
                      }
                    }
                  }
                }
              }
            }
          }
        }
        JOINT RightShoulder
        {
          OFFSET -2.2086 21.1115 7.2329
          CHANNELS 3 Zrotation Xrotation Yrotation
          JOINT RightArm
          {
            OFFSET -13.1216 3.0287 -4.9007
            CHANNELS 3 Zrotation Xrotation Yrotation
            JOINT RightForeArm
            {
              OFFSET -27.4081 -0.0973053 -0.2375
              CHANNELS 3 Zrotation Xrotation Yrotation
              JOINT RightHand
              {
                OFFSET -22.8641 0.0664063 -0.1369
                CHANNELS 3 Zrotation Xrotation Yrotation
                JOINT RightHandIndex1
                {
                  OFFSET -8.8614 0.774994 2.4612
                  CHANNELS 3 Zrotation Xrotation Yrotation
                  JOINT RightHandIndex2
                  {
                    OFFSET -3.3146 -0.808304 0.5841
                    CHANNELS 3 Zrotation Xrotation Yrotation
                    JOINT RightHandIndex3
                    {
                      OFFSET -2.2628 -0.552002 0.3989
                      CHANNELS 3 Zrotation Xrotation Yrotation
                      End Site
                      {
                        OFFSET -1.6102 -0.4807 0.2612
                      }
                    }
                  }
                }
                JOINT RightHandMiddle1
                {
                  OFFSET -8.9937 0.894989 0.2143
                  CHANNELS 3 Zrotation Xrotation Yrotation
                  JOINT RightHandMiddle2
                  {
                    OFFSET -4.0984 0.0113983 -0.0242
                    CHANNELS 3 Zrotation Xrotation Yrotation
                    JOINT RightHandMiddle3
                    {
                      OFFSET -2.2716 0.00691223 -0.0138001
                      CHANNELS 3 Zrotation Xrotation Yrotation
                      End Site
                      {
                        OFFSET -2.0404 -0.1441 0.0027
                      }
                    }
                  }
                }
                JOINT RightHandRing1
                {
                  OFFSET -8.5234 0.597198 -2.0164
                  CHANNELS 3 Zrotation Xrotation Yrotation
                  JOINT RightHandRing2
                  {
                    OFFSET -3.7188 -0.188309 -0.2328
                    CHANNELS 3 Zrotation Xrotation Yrotation
                    JOINT RightHandRing3
                    {
                      OFFSET -2.1191 -0.106598 -0.1332
                      CHANNELS 3 Zrotation Xrotation Yrotation
                      End Site
                      {
                        OFFSET -1.8737 -0.2304 -0.0886
                      }
                    }
                  }
                }
                JOINT RightHandPinky1
                {
                  OFFSET -7.9094 -0.601105 -3.4825
                  CHANNELS 3 Zrotation Xrotation Yrotation
                  JOINT RightHandPinky2
                  {
                    OFFSET -2.2874 -0.477005 -0.6314
                    CHANNELS 3 Zrotation Xrotation Yrotation
                    JOINT RightHandPinky3
                    {
                      OFFSET -1.6774 -0.349396 -0.4633
                      CHANNELS 3 Zrotation Xrotation Yrotation
                      End Site
                      {
                        OFFSET -1.4888 -0.4091 -0.3416
                      }
                    }
                  }
                }
                JOINT RightHandThumb1
                {
                  OFFSET -1.833 -1.38751 1.3896
                  CHANNELS 3 Zrotation Xrotation Yrotation
                  JOINT RightHandThumb2
                  {
                    OFFSET -3.41299 -1.12099 2.5732
                    CHANNELS 3 Zrotation Xrotation Yrotation
                    JOINT RightHandThumb3
                    {
                      OFFSET -2.24741 -0.804108 1.6192
                      CHANNELS 3 Zrotation Xrotation Yrotation
                      End Site
                      {
                        OFFSET -1.6527 -0.5689 1.1317
                      }
                    }
                  }
                }
              }
            }
          }
        }
      }
    }
  }
  JOINT RightUpLeg
  {
    OFFSET -9.1966 3.8861 -0.7581
    CHANNELS 3 Zrotation Xrotation Yrotation
    JOINT RightLeg
    {
      OFFSET -0.7359 -41.0265 0
      CHANNELS 3 Zrotation Xrotation Yrotation
      JOINT RightFoot
      {
        OFFSET 0 -40.2855 0
        CHANNELS 3 Zrotation Xrotation Yrotation
        JOINT RightToeBase
        {
          OFFSET 0 -5.6122 11.7359
          CHANNELS 3 Zrotation Xrotation Yrotation
          End Site
          {
            OFFSET 0 0 7.8731
          }
        }
      }
    }
  }
  JOINT LeftUpLeg
  {
    OFFSET 9.1965 3.8864 -0.7581
    CHANNELS 3 Zrotation Xrotation Yrotation
    JOINT LeftLeg
    {
      OFFSET 0.7359 -41.0268 0
      CHANNELS 3 Zrotation Xrotation Yrotation
      JOINT LeftFoot
      {
        OFFSET 0 -40.2855 0
        CHANNELS 3 Zrotation Xrotation Yrotation
        JOINT LeftToeBase
        {
          OFFSET 0 -5.6122 11.7359
          CHANNELS 3 Zrotation Xrotation Yrotation
          End Site
          {
            OFFSET 0 0 7.8731
          }
        }
      }
    }
  }
}
MOTION
Frames:	6
Frame Time:	0.0333333
5.84602e-005 68.8428 3.50346 0 0 -0 0 0 -0 0 0 -0 0 0 -0 0 0 -0 0 0 -0 0 0 -0 0 0 -0 0 0 -0 0 0 -0 0 0 -0 0 0 -0 0 0 -0 0 0 -0 -0.0146107 -8.87603e-005 -2.63497e-007 2.99804e-018 -2.42657e-020 -1.42182e-022 0 0 -0 -0.0187562 -0.001176 5.858e-005 5.06224e-018 3.88251e-019 1.21329e-020 0 0 -0 -0.012269 -0.00324817 0.000675346 -1.74678e-018 3.88251e-019 -0 0 0 -0 0 0 -0 0 0 -0 0 0 -0 0 0 -0 0 0 -0 0 0 -0 0 0 -0 0 0 -0 0 0 -0 0 0 -0 0.0149955 -9.10982e-005 2.64101e-007 -9.69331e-018 1.21329e-020 -4.7394e-023 0 0 -0 0.0189956 -0.00119102 -5.96516e-005 -5.41541e-019 0 2.42657e-020 0 0 -0 0.0122698 -0.00324857 -0.000673756 -2.00796e-019 0 -1.94126e-019 0 0 -0 0 0 -0 0 0 -0 3.39842 1.33031 -0.0637918 -5.65207e-008 0.834868 -0.000436188 -3.39935 -2.16518 -0.0642563 -8.89002e-024 -1.18485e-023 -1.48106e-024 -3.39844 1.35642 0.0640283 -3.18788e-007 0.782166 -0.000588827 3.39931 -2.13858 0.0634662 1.1399e-023 0 -0 
-0.00310295 27.9766 6.3211 -180 -89.9981 -180 0 0 -0 0 0 -0 0 0 -0 1.99869 -0.0821831 0.00286811 19.9982 -1.09444e-005 3.44937e-007 -0 -0.0821817 -0 -73.0028 -3.60694e-006 -4.25658e-006 4.13256e-006 -9.31139e-007 -81.0033 -39.0018 2.96404e-006 4.32548e-006 1.03918e-007 -2.43192e-007 -1.29374e-006 3.41621e-008 -5.06748e-007 -1.62716e-006 7.73357e-008 -3.84856e-007 -1.2241e-006 1.03918e-007 -2.43192e-007 -1.29374e-006 -0.0145881 -8.96806e-005 -4.37227e-006 7.82932e-008 -3.84694e-007 -1.22415e-006 1.03918e-007 -2.43192e-007 -1.29374e-006 -0.0187582 -0.00117729 5.6677e-005 7.85554e-008 -3.84578e-007 -1.22417e-006 1.03918e-007 -2.43192e-007 -1.29374e-006 -0.012238 -0.00324272 0.000672952 7.81029e-008 -3.84513e-007 -1.22419e-006 1.03918e-007 -2.43192e-007 -1.29374e-006 3.41621e-008 -5.06748e-007 -1.62716e-006 7.73357e-008 -3.84856e-007 -1.2241e-006 -0 -0.0821817 -0 72.9985 2.91391e-006 -6.37449e-006 3.29867e-006 -2.8672e-007 81.9958 35.9992 -2.33355e-006 -1.90585e-006 1.64642e-007 -8.86493e-007 -4.63561e-007 2.14782e-007 -3.83075e-008 8.78909e-007 2.87004e-006 -1.47141e-006 3.26514e-006 1.64642e-007 -8.86493e-007 -4.63561e-007 0.0150116 -9.26161e-005 -2.42182e-006 3.29726e-008 -1.01384e-006 1.37118e-006 1.64642e-007 -8.86493e-007 -4.63561e-007 0.0190235 -0.00119163 -5.91011e-005 3.2996e-008 -1.0138e-006 1.37122e-006 1.64642e-007 -8.86493e-007 -4.63561e-007 0.0122796 -0.00324973 -0.000679646 3.30097e-008 -1.01388e-006 1.37116e-006 1.64642e-007 -8.86493e-007 -4.63561e-007 2.14782e-007 -3.83075e-008 8.78909e-007 2.87004e-006 -1.47141e-006 3.26514e-006 0.634283 -35.5341 -2.57498 0.0261804 83.052 -2.49037 -2.89064 32.3325 -0.80479 1.06278e-007 2.39666e-009 -9.3059e-009 -1.42217 1.75176 0.0681875 -9.18226e-007 -1.46958e-005 0.185207 3.41471 -1.76374 -0.0400942 -5.28167e-007 -8.16355e-010 -7.54347e-008 
-0.00310295 27.9766 6.3211 -180 -89.9981 -180 0 0 -0 0 0 -0 0 0 -0 1.99869 -0.0821831 0.00286811 19.1806 -4.88868e-006 -6.26624e-007 -0 -0.0821817 -0 -73.0028 -4.03008e-006 4.44044e-006 -1.54269e-005 -3.53104e-006 -81.607 -39.0018 9.30082e-007 1.72612e-006 8.08843e-008 4.37138e-007 -2.14469e-007 -1.74885e-008 -9.45163e-008 4.63717e-008 5.68376e-008 3.07178e-007 -1.50708e-007 8.08843e-008 4.37138e-007 -2.14469e-007 -0.0146132 -8.75752e-005 2.74976e-006 5.68374e-008 3.07197e-007 -1.50669e-007 8.08843e-008 4.37138e-007 -2.14469e-007 -0.01874 -0.00117314 6.15926e-005 5.68362e-008 3.07203e-007 -1.50658e-007 8.08843e-008 4.37138e-007 -2.14469e-007 -0.0122341 -0.00323956 0.000673522 5.68351e-008 3.07194e-007 -1.50677e-007 8.08843e-008 4.37138e-007 -2.14469e-007 -1.74885e-008 -9.45163e-008 4.63717e-008 5.68376e-008 3.07178e-007 -1.50708e-007 -0 -0.0821817 -0 72.9985 6.79347e-006 -9.24513e-006 3.21786e-006 -2.40218e-005 82.389 35.9992 -1.01661e-006 1.70025e-006 1.717e-008 -9.33613e-008 -4.87589e-008 -1.717e-008 9.33613e-008 4.87589e-008 -1.43125e-014 -4.77083e-015 -0 1.717e-008 -9.33613e-008 -4.87589e-008 0.0149671 -9.11531e-005 6.34803e-007 -3.57812e-015 -1.59028e-015 -0 1.717e-008 -9.33613e-008 -4.87589e-008 0.0190256 -0.00119473 -5.82729e-005 -5.1684e-015 -1.59028e-015 -6.36111e-015 1.717e-008 -9.33613e-008 -4.87589e-008 0.0122392 -0.00324082 -0.00067041 -4.77083e-015 -4.77083e-015 9.54166e-015 1.717e-008 -9.33613e-008 -4.87589e-008 -1.717e-008 9.33613e-008 4.87589e-008 -1.43125e-014 -4.77083e-015 -0 0.634283 -35.5341 -2.57498 0.0261804 83.052 -2.49037 -2.89064 32.3325 -0.80479 1.06278e-007 2.39666e-009 -9.3059e-009 -1.42217 1.75176 0.0681875 -9.18226e-007 -1.46958e-005 0.185207 3.41471 -1.76374 -0.0400942 -5.28167e-007 -8.16355e-010 -7.54347e-008 
-0.00310295 27.9766 6.3211 -180 -89.9981 -180 0 0 -0 0 0 -0 0 0 -0 1.99869 -0.0821831 0.00286811 18.3611 2.44906e-006 5.13333e-007 -0 -0.0821817 -0 -73.0028 6.60951e-006 6.30108e-006 -1.95109e-006 -1.36775e-005 -82.2112 -39.0018 8.3509e-007 5.38115e-007 2.86583e-006 -1.14224e-006 -7.02741e-007 6.33976e-008 -7.1845e-007 -5.20834e-007 2.86583e-006 -1.14224e-006 -7.02741e-007 2.86583e-006 -1.14224e-006 -7.02741e-007 -0.014654 -8.93808e-005 -1.24607e-006 2.86402e-006 -1.14216e-006 -7.0289e-007 2.86583e-006 -1.14224e-006 -7.02741e-007 -0.018788 -0.00118001 5.74939e-005 2.8635e-006 -1.14228e-006 -7.02951e-007 2.86583e-006 -1.14224e-006 -7.02741e-007 -0.0122758 -0.00324927 0.0006747 -3.88218e-008 -2.12832e-007 1.04184e-007 2.86583e-006 -1.14224e-006 -7.02741e-007 6.33976e-008 -7.1845e-007 -5.20834e-007 2.86583e-006 -1.14224e-006 -7.02741e-007 -0 -0.0821817 -0 72.9985 6.79347e-006 -9.24513e-006 4.3812e-006 -2.33999e-005 82.7824 35.9992 1.10257e-006 -1.12517e-006 8.50448e-008 -4.67033e-007 -2.43606e-007 1.53081e-007 -8.40659e-007 -4.38491e-007 1.87099e-007 -1.02747e-006 -5.35934e-007 8.50448e-008 -4.67033e-007 -2.43606e-007 0.0150011 -9.34089e-005 -1.44444e-007 1.871e-007 -1.02754e-006 -5.35799e-007 8.50448e-008 -4.67033e-007 -2.43606e-007 0.0189874 -0.00119293 -6.20524e-005 1.87096e-007 -1.02756e-006 -5.35765e-007 8.50448e-008 -4.67033e-007 -2.43606e-007 0.0122679 -0.00325065 -0.00067286 1.87091e-007 -1.02753e-006 -5.35829e-007 8.50448e-008 -4.67033e-007 -2.43606e-007 1.53081e-007 -8.40659e-007 -4.38491e-007 1.87099e-007 -1.02747e-006 -5.35934e-007 0.634283 -35.5341 -2.57498 0.0261804 83.052 -2.49037 -2.89064 32.3325 -0.80479 1.06278e-007 2.39666e-009 -9.3059e-009 -1.42217 1.75176 0.0681875 -9.18226e-007 -1.46958e-005 0.185207 3.41471 -1.76374 -0.0400942 -5.28167e-007 -8.16355e-010 -7.54347e-008 
-0.00309971 27.9766 6.3211 -180 -89.9981 -180 -7.34298e-014 0 -3.55048e-014 0 0 -2.17109e-030 4.53452e-021 -1.58773e-010 3.44131e-021 1.9987 -0.0817339 0.00286571 17.5397 7.5899e-008 1.94827e-007 -5.96476e-023 -0.0821817 -1.12155e-021 -73.0028 -8.52108e-006 -7.34209e-006 1.3818e-005 2.99988e-005 -82.8159 -39.0018 4.52486e-007 4.70969e-006 6.80822e-008 3.78621e-007 -1.85016e-007 5.10616e-008 2.83966e-007 -1.38762e-007 6.80822e-008 3.78621e-007 -1.85016e-007 6.80822e-008 3.78621e-007 -1.85016e-007 -0.0146088 -8.78928e-005 1.98222e-006 6.80825e-008 3.78645e-007 -1.84968e-007 6.80822e-008 3.78621e-007 -1.85016e-007 -0.018721 -0.00117398 6.1054e-005 6.8081e-008 3.78651e-007 -1.84955e-007 6.80822e-008 3.78621e-007 -1.85016e-007 -0.0122406 -0.00323963 0.00067398 6.80795e-008 3.78641e-007 -1.84978e-007 6.80822e-008 3.78621e-007 -1.85016e-007 5.10616e-008 2.83966e-007 -1.38762e-007 6.80822e-008 3.78621e-007 -1.85016e-007 -5.96476e-023 -0.0821817 -1.12155e-021 72.9984 5.76822e-006 -9.04166e-006 1.20796e-005 -1.70891e-005 83.176 35.9992 4.72194e-007 -3.08898e-006 2.93369e-007 -6.00253e-007 5.08873e-007 -5.01419e-008 -6.96767e-007 1.76729e-007 5.05431e-008 -2.80352e-007 -1.46049e-007 2.93369e-007 -6.00253e-007 5.08873e-007 0.014957 -9.15321e-005 -4.29798e-007 5.05436e-008 -2.80371e-007 -1.46012e-007 2.93369e-007 -6.00253e-007 5.08873e-007 0.0190321 -0.0011924 -6.01675e-005 2.90826e-007 -6.00008e-007 5.08978e-007 2.93369e-007 -6.00253e-007 5.08873e-007 0.0122279 -0.00323679 -0.00067405 5.05411e-008 -2.80367e-007 -1.46021e-007 2.93369e-007 -6.00253e-007 5.08873e-007 -5.01419e-008 -6.96767e-007 1.76729e-007 5.05431e-008 -2.80352e-007 -1.46049e-007 0.634289 -35.5342 -2.57498 0.0261696 83.052 -2.49036 -2.89064 32.3325 -0.804793 -3.47873e-016 1.59028e-015 -3.97569e-016 -1.42217 1.75174 0.0681873 -2.47154e-007 1.44177e-005 0.185208 3.41471 -1.76372 -0.0400955 -3.01804e-007 2.91791e-009 1.50914e-007 
-0.00309971 27.9766 6.3211 -180 -89.9981 -180 -7.34298e-014 0 -3.55048e-014 0 0 -2.17109e-030 4.53452e-021 -1.58773e-010 3.44131e-021 1.9987 -0.0817339 0.00286571 16.7165 -5.96958e-006 2.26148e-006 -5.96476e-023 -0.0821817 -1.12155e-021 -73.0028 2.11429e-006 -5.47575e-006 1.0704e-005 -1.19432e-005 -83.4211 -39.0018 1.56685e-006 1.76503e-006 3.04869e-006 -9.34975e-007 -2.71942e-006 1.44088e-007 -4.17299e-007 -5.90789e-007 2.92587e-006 -7.64209e-007 -9.26729e-007 3.04869e-006 -9.34975e-007 -2.71942e-006 -0.0146009 -8.96485e-005 -1.36408e-007 2.92407e-006 -7.64102e-007 -9.26829e-007 3.04869e-006 -9.34975e-007 -2.71942e-006 -0.0187698 -0.00117915 5.64834e-005 1.67853e-008 9.47284e-008 -4.61779e-008 3.04869e-006 -9.34975e-007 -2.71942e-006 -0.012332 -0.00326384 0.00068519 2.92432e-006 -7.64529e-007 -9.2681e-007 3.04869e-006 -9.34975e-007 -2.71942e-006 1.44088e-007 -4.17299e-007 -5.90789e-007 2.92587e-006 -7.64209e-007 -9.26729e-007 -5.96476e-023 -0.0821817 -1.12155e-021 72.9985 -2.00861e-006 -3.3005e-006 -1.38663e-005 -1.58487e-006 83.5696 35.9992 3.60088e-007 2.36645e-006 1.00117e-007 -5.60962e-007 -2.91865e-007 1.33489e-007 -7.47949e-007 -3.89154e-007 1.00117e-007 -5.60962e-007 -2.91865e-007 1.00117e-007 -5.60962e-007 -2.91865e-007 0.0149877 -9.0965e-005 7.14423e-007 1.00118e-007 -5.61e-007 -2.91792e-007 1.00117e-007 -5.60962e-007 -2.91865e-007 0.0189878 -0.00119137 -5.78365e-005 3.38193e-007 -9.12319e-007 3.21035e-007 1.00117e-007 -5.60962e-007 -2.91865e-007 0.0123139 -0.00326086 -0.000674877 3.39097e-007 -9.12059e-007 3.21059e-007 1.00117e-007 -5.60962e-007 -2.91865e-007 1.33489e-007 -7.47949e-007 -3.89154e-007 1.00117e-007 -5.60962e-007 -2.91865e-007 0.634285 -35.5342 -2.57499 0.0261806 83.052 -2.49036 -2.89064 32.3325 -0.804796 3.47873e-016 0 7.95139e-016 -1.42217 1.75174 0.0681873 -2.47154e-007 1.44177e-005 0.185208 3.41471 -1.76372 -0.0400955 -3.01804e-007 2.91791e-009 1.50914e-007 
